<svg width="112" height="45" viewBox="0 0 112 45" fill="none" xmlns="http://www.w3.org/2000/svg">
<path fill-rule="evenodd" clip-rule="evenodd" d="M20.7934 1.45757C20.2246 1.34659 19.6083 1.32349 19.1911 1.32349C18.7739 1.32349 18.1576 1.34659 17.5889 1.45757L3.98834 4.11563C2.4694 4.41196 1.32349 5.80804 1.32349 7.36299V25.5587V34.6354C1.32349 36.0247 2.23116 37.4641 3.48165 38.0574L6.45018 39.4653L17.2829 44.605C17.9714 44.9318 18.7012 45 19.1917 45C19.6822 45 20.4109 44.9318 21.0993 44.605L31.9321 39.4653L34.9006 38.0574C36.1511 37.4641 37.0588 36.0247 37.0588 34.6354V25.5587V7.36299C37.0588 5.80804 35.9129 4.41196 34.3939 4.11563L20.7934 1.45757ZM35.3413 7.36299C35.3413 6.6458 34.7675 5.94663 34.0668 5.80972L20.4657 3.15168C20.115 3.08352 19.6531 3.04913 19.1911 3.04913C18.7292 3.04913 18.2672 3.08352 17.9166 3.15168L4.3155 5.80972C3.61475 5.94663 3.04096 6.6458 3.04096 7.36299L3.04152 24.9643V34.6354C3.04152 35.3526 3.56945 36.1903 4.21539 36.4968L18.0167 43.0444C18.3399 43.1977 18.7661 43.2743 19.1917 43.2743C19.6173 43.2743 20.0423 43.1977 20.3656 43.0444L34.1669 36.4968C34.8128 36.1903 35.3407 35.3526 35.3407 34.6354V24.9643L35.3413 7.36299Z" fill="#E22939"/>
<path fill-rule="evenodd" clip-rule="evenodd" d="M19.2232 4.92896C18.7612 4.92896 18.2998 4.96335 17.9492 5.03152L14.4745 5.7104L6.06556 7.3538C5.36481 7.4907 4.79102 8.18986 4.79102 8.90705V33.6633C4.79102 34.3805 5.31951 35.2183 5.96489 35.5248L11.2057 38.011L18.0493 41.2578C18.372 41.411 18.7981 41.4876 19.2237 41.4876C19.6493 41.4876 20.0749 41.411 20.3976 41.2578L27.2412 38.011L32.482 35.5247C33.1274 35.2183 33.6559 34.3805 33.6559 33.6633V8.90702C33.6559 8.18983 33.0821 7.49067 32.3813 7.35377L23.9724 5.71037L20.4977 5.03149C20.147 4.96332 19.6851 4.92896 19.2232 4.92896ZM13.8571 29.6774C13.9527 29.7472 14.0651 29.7822 14.1776 29.7822C14.2911 29.7822 14.4052 29.7461 14.5014 29.6746L19.2237 26.172L23.9455 29.6745C24.0417 29.7461 24.1558 29.7822 24.2693 29.7822C24.3817 29.7822 24.4941 29.7472 24.5898 29.6774C24.7822 29.5371 24.8616 29.2875 24.7866 29.061L22.9305 23.466L27.7048 20.0356C27.8983 19.8964 27.98 19.648 27.9062 19.4209C27.8329 19.195 27.6237 19.0423 27.3877 19.0423H27.3838L21.5144 19.0868L19.7433 13.4642C19.6717 13.2366 19.4608 13.0817 19.2232 13.0817C18.9855 13.0817 18.7752 13.2367 18.7036 13.4643L16.9324 19.0869L11.0631 19.0424H11.0591C10.8231 19.0424 10.614 19.195 10.5407 19.421C10.4669 19.648 10.5485 19.8965 10.7421 20.0356L15.5164 23.4661L13.6602 29.061C13.5853 29.2875 13.6647 29.5371 13.8571 29.6774Z" fill="#E22939"/>
<path d="M50.2942 22.1141H53.8024V15.2597H60.9241V22.1141H64.4242V5.52105H60.9241V12.3673H53.8024V5.52105H50.2942V22.1141Z" fill="#E22939"/>
<path d="M67.3167 22.1141H78.5299V19.2217H70.8249V15.2597H77.9223V12.3673H70.8249V8.41349H78.4975V5.52105H67.3167V22.1141Z" fill="#E22939"/>
<path d="M81.2867 22.1141H84.7949V16.232H87.3551L90.4987 22.1141H94.3715L90.8471 15.6649C92.7349 14.8546 93.7801 13.2099 93.7801 10.9413C93.7801 7.64379 91.6006 5.52105 87.8332 5.52105H81.2867V22.1141ZM84.7949 13.4125V8.38918H87.1607C89.1862 8.38918 90.1665 9.28851 90.1665 10.9413C90.1665 12.5861 89.1862 13.4125 87.1769 13.4125H84.7949Z" fill="#E22939"/>
<path d="M111.507 13.8176C111.507 8.38918 108.137 5.29419 103.738 5.29419C99.3138 5.29419 95.9676 8.38918 95.9676 13.8176C95.9676 19.2217 99.3138 22.341 103.738 22.341C108.137 22.341 111.507 19.246 111.507 13.8176ZM107.951 13.8176C107.951 17.3339 106.282 19.2379 103.738 19.2379C101.185 19.2379 99.5245 17.3339 99.5245 13.8176C99.5245 10.3013 101.185 8.39729 103.738 8.39729C106.282 8.39729 107.951 10.3013 107.951 13.8176Z" fill="#E22939"/>
<path d="M55.7234 31.257H57.9304C57.9117 29.4737 56.4917 28.2678 54.2754 28.2678C52.0963 28.2678 50.5272 29.4551 50.5412 31.2291C50.5365 32.6771 51.5516 33.4919 53.1998 33.8691L54.1962 34.1019C55.2438 34.344 55.7141 34.628 55.7234 35.1634C55.7141 35.7455 55.1693 36.1505 54.2428 36.1505C53.2231 36.1505 52.5526 35.6756 52.5014 34.7584H50.2944C50.3224 36.9886 51.8728 38.0549 54.2707 38.0549C56.6453 38.0549 58.0514 36.9793 58.0607 35.1681C58.0514 33.6456 57.0224 32.7144 55.1414 32.3L54.3219 32.1137C53.4559 31.9275 52.9065 31.6388 52.9251 31.0708C52.9298 30.5493 53.3767 30.1722 54.2707 30.1722C55.1693 30.1722 55.6629 30.5772 55.7234 31.257Z" fill="#E22939"/>
<path d="M58.9128 30.2699H61.8089V37.9338H64.081V30.2699H66.9724V28.3982H58.9128V30.2699Z" fill="#E22939"/>
<path d="M68.9699 37.9338L69.5985 35.9317H72.8903L73.5189 37.9338H75.9959L72.7786 28.3982H69.7102L66.4929 37.9338H68.9699ZM70.1479 34.181L71.2048 30.8007H71.2793L72.3409 34.181H70.1479Z" fill="#E22939"/>
<path d="M77.0226 37.9338H79.3273V34.6699H80.5099L82.2513 37.9338H84.7656L82.7868 34.3021C83.8344 33.8272 84.4397 32.8913 84.4397 31.5736C84.4397 29.6134 83.1034 28.3982 80.9616 28.3982H77.0226V37.9338ZM79.3273 32.854V30.256H80.4634C81.497 30.256 82.0511 30.689 82.0511 31.5736C82.0511 32.4583 81.497 32.854 80.4634 32.854H79.3273Z" fill="#E22939"/>
<path d="M85.3918 30.2699H88.2879V37.9338H90.5601V30.2699H93.4515V28.3982H85.3918V30.2699Z" fill="#E22939"/>
<path d="M100.346 28.3982V34.3486C100.346 35.3404 99.6429 36.0528 98.6139 36.0528C97.5802 36.0528 96.8818 35.3404 96.8818 34.3486V28.3982H94.5771V34.5488C94.5771 36.6813 96.1881 38.0549 98.6139 38.0549C101.021 38.0549 102.646 36.6813 102.646 34.5488V28.3982H100.346Z" fill="#E22939"/>
<path d="M104.091 37.9338H106.395V34.9725H107.96C110.143 34.9725 111.508 33.6782 111.508 31.6993C111.508 29.7391 110.171 28.3982 108.03 28.3982H104.091V37.9338ZM106.395 33.1567V30.256H107.531C108.565 30.256 109.119 30.8147 109.119 31.6993C109.119 32.5793 108.565 33.1567 107.531 33.1567H106.395Z" fill="#E22939"/>
</svg>
